<?xml version="1.0" encoding="utf-8"?>
<!-- Generator: Adobe Illustrator 25.4.1, SVG Export Plug-In . SVG Version: 6.00 Build 0)  -->
<svg version="1.1" id="レイヤー_1" xmlns="http://www.w3.org/2000/svg" xmlns:xlink="http://www.w3.org/1999/xlink" x="0px"
	 y="0px" viewBox="0 0 1076 131" style="enable-background:new 0 0 1076 131;" xml:space="preserve">
<style type="text/css">
	.st0{fill:#FFFFFF;}
</style>
<g>
	<g>
		<path class="st0" d="M353.5,50.8h20.9v76h-20.9V50.8z"/>
		<path class="st0" d="M380.5,50.8h20.6l16.5,39.7V50.8h21v76h-20l-17.2-39.7v39.7h-20.9V50.8z"/>
		<path class="st0" d="M459.7,102.7c1.8,4.1,4,6.2,6.8,6.2c3.4,0,4.1-1.5,4.1-7.8V50.8h21V110c-0.7,11.2-7.5,17.9-18.2,17.9
			c-4.9,0-8.6-1.1-13.7-3.8V102.7z"/>
		<path class="st0" d="M507.7,50.8h26.2l16.7,76h-21.3l-1.9-13.2h-12.9l-1.9,13.2H491L507.7,50.8z M516.7,98.7h8.4l-4.2-28.5
			L516.7,98.7z"/>
		<path class="st0" d="M613.1,50.8h26.2l16.7,76h-21.3l-1.9-13.2h-12.9l-1.9,13.2h-21.5L613.1,50.8z M622.1,98.7h8.4l-4.2-28.5
			L622.1,98.7z"/>
		<path class="st0" d="M573.9,100.6v26.2H553v-76h19.3c1.1,0,0.5,0,3.6,0c18.2,0,28,11.5,28,25.1c0,15.5-9.8,24.6-28,24.6H573.9z
			 M573.9,85.2h2.3c6.7,0,7.8-4.2,7.8-9.2c0-5.8-2.4-8.2-7.9-8.3h-2.1V85.2z"/>
		<path class="st0" d="M658.5,50.8h20.3l16.7,39.7V50.8h21v76h-20l-17.2-39.7v39.7h-20.9V50.8z"/>
		<path class="st0" d="M740.4,50.8h37.7v17.1h-16.8v12.3h14v16.5h-14v30h-20.9V50.8z"/>
		<path class="st0" d="M781.3,50.8h38.3v17.1h-17.5v12.3h14.6v16.5h-14.6v13h17.5v17.1h-38.3V50.8z"/>
		<path class="st0" d="M863.4,73.9c-5.2-4.1-9.9-6.2-14.1-6.2c-3.7,0-6.5,2.4-6.5,5.7c0,3.3,1.8,4.8,9.6,8.9
			c10.9,5.5,14.5,11,14.5,21.5c0,14.4-9.6,23.9-24.7,23.9c-6.6,0-11.7-1.2-18.9-4.2v-21.6c4.6,5.2,10.2,7.7,14.9,7.7c4,0,7-2.5,7-6
			c0-3.1-1.2-4.4-8.4-8c-11.4-5.6-15.6-11.3-15.6-21.7c0-14.1,10.1-23.5,25.2-23.5c6,0,10.3,0.7,16.7,3.3V73.9z"/>
		<path class="st0" d="M877.4,106.3c5.8,0,10.7,4.8,10.7,10.8c0,5.9-4.9,10.8-10.7,10.8c-5.9,0-10.7-4.8-10.7-10.6
			C866.7,111.2,871.5,106.3,877.4,106.3z"/>
		<g>
			<path class="st0" d="M899.8,110.9c10.6-11.4,17.2-23.4,17.2-32.8c0-6-2.6-9.5-7.3-9.5c-3.2,0-7.1,1.5-9.8,5.5V53.8
				c5.9-2.8,12.3-3.8,17.6-3.8c13.1,0,21.2,8.3,21.2,21.7c0,10.6-4.3,22.2-14.5,35.5h15.4v19.6h-39.6V110.9z"/>
			<path class="st0" d="M993.9,110.9c10.6-11.4,17.2-23.4,17.2-32.8c0-6-2.6-9.5-7.3-9.5c-3.2,0-7.1,1.5-9.8,5.5V53.8
				c5.9-2.8,12.3-3.8,17.6-3.8c13.1,0,21.2,8.3,21.2,21.7c0,10.6-4.3,22.2-14.5,35.5h15.4v19.6h-39.6V110.9z"/>
			<path class="st0" d="M1036.4,110.9c10.6-11.4,17.2-23.4,17.2-32.8c0-6-2.6-9.5-7.3-9.5c-3.2,0-7.1,1.5-9.8,5.5V53.8
				c5.9-2.8,12.3-3.8,17.6-3.8c13.1,0,21.2,8.3,21.2,21.7c0,10.6-4.3,22.2-14.5,35.5h15.4v19.6h-39.6V110.9z"/>
			<path class="st0" d="M966.3,49.7c16.5,0,26.4,13.4,26.4,39.1c0,24.5-9.1,39.2-26.4,39.2c-16.3,0-26.4-13.1-26.4-39.2
				C939.9,63.6,949.4,49.7,966.3,49.7z M959.4,88.8c0,12.4,2.6,20.1,6.8,20.1c4.4,0,7-7.4,7-20.1c0-12.3-2.5-20-6.8-20
				C962.1,68.8,959.4,76.1,959.4,88.8z"/>
		</g>
	</g>
	<g>
		<g>
			<path class="st0" d="M124.1,47.5c-5.8,0-8.6,8.2-8.6,24.8c0,16.7,2.8,24.8,8.6,24.8c5.8,0,8.8-8,8.8-24.8
				C132.8,55.7,129.9,47.5,124.1,47.5z"/>
			<path class="st0" d="M40.9,44.8H38v20.6h3.1c5.4,0,7.1-4.8,7.1-10.4C48.2,48.6,45.3,44.8,40.9,44.8z"/>
			<path class="st0" d="M0,13.6V131h324.9V13.6H0z M86.5,126.9H52c-0.3,0-1,0.1-0.5-0.6c0.4-0.6,0.2-1.9,0-3.3l-9.3-37.1l-4.3,0
				v37.3c0,1.3,0.1,2.5,0.4,3c0.5,0.8-0.2,0.6-0.5,0.6H4.3c-0.3,0-1,0.1-0.5-0.6c0.3-0.4,0.4-1.4,0.4-2.6V20.9c0-1-0.1-2.1-0.4-2.6
				c-0.4-0.7,0-0.7,0.4-0.7l37.1,0c24,0,38.4,13.2,38.4,35.3c0,11.9-3.5,19.5-8.6,24.4l12,39.8c0,0,2.1,6.6,3.8,9
				C87.4,126.8,86.9,126.9,86.5,126.9z M124.1,128.4c-27.9,0-43.4-19.5-43.4-56c0-35.1,14.6-56,43.4-56c28.4,0,43.6,19.8,43.6,56
				C167.6,106.6,153.7,128.4,124.1,128.4z M235.3,121.3C235.3,121.3,235.3,121.3,235.3,121.3l0,0.9c0,0.3,0,0.9-0.6,0.5
				c-0.6-0.4-1-0.3-1.7,0c-7.3,4.3-13,5.8-21.2,5.8c-27.2,0-42.2-19.8-42.2-55.9c0-34.7,16.2-56,42.7-56c7,0,13,1.3,19.3,4.5
				c1.3,0.7,1.8,1,2.6,0.5c0.7-0.4,0.6,0.2,0.6,0.5v6.6l0,0v28.5l0,0c-3.6-6.3-7.9-10.2-14.1-10.2c-9.4,0-16,8.3-16,25.7
				c0,16.2,7.3,24.6,16,24.6c7.7,0,12.1-4.4,14.8-13.1h0.1V121.3z M322.4,126.9L322.4,126.9l-37.8,0c-0.3,0-1,0.1-0.5-0.6
				c0.5-0.8,0.2-2.4-0.3-4.1l-11-36.9v37.7c0,1.1,0.1,2.7,0.4,3.3c0.5,0.8-0.2,0.6-0.5,0.6l-6.6,0l-27.1,0c-0.3,0-1,0.1-0.5-0.6
				c0.5-0.8,0.4-3.8,0.4-4.2l0-100.8c0-1.1-0.1-2.4-0.4-2.9c-0.5-0.8,0.2-0.6,0.5-0.6l33.7,0v0c0.3,0,0.9-0.1,0.4,0.6
				c-0.3,0.6-0.4,2.2-0.4,3.3v35l10.3-34.2c0.5-1.7,0.7-3.3,0.3-4.1c-0.5-0.8,0.2-0.6,0.5-0.6h35.8c0.4,0,0.9,0.1,0.4,0.7
				c-0.7,0.8-1.4,2.4-2,3.8l-17.9,47.1l20.7,53.9c0.5,1.1,1.2,2.6,1.7,3.2C323,126.7,322.7,126.8,322.4,126.9z"/>
		</g>
		<g>
			<path class="st0" d="M2.7,4.5L2.7,4.5c0.4-0.7,1.1-1,1.8-1c0.3,0,0.6,0.1,0.9,0.2l-0.2,2C4.9,5.5,4.6,5.4,4.3,5.4
				c-1.4,0-1.6,1.3-1.6,2.5v2.8H0.6v-7h2.1V4.5z"/>
			<path class="st0" d="M5.7,7.2c0-2.2,1.6-3.8,3.8-3.8c1.2,0,2.3,0.5,3.1,1.4c0.5,0.6,0.7,1.4,0.7,2.4c0,2.2-1.5,3.7-3.8,3.7
				C7.3,10.9,5.7,9.4,5.7,7.2z M9.5,4.9C8.5,4.9,8,5.6,8,7.3c0,1.5,0.5,2.2,1.5,2.2c0.5,0,0.9-0.2,1.1-0.6C10.9,8.6,11,8.1,11,7.2
				c0,0,0-0.1,0-0.1C11,5.6,10.5,4.9,9.5,4.9z"/>
			<path class="st0" d="M20.3,10.5c-0.8,0.3-1.6,0.5-2.3,0.5c-2.4,0-3.9-1.5-3.9-3.7c0-2.2,1.6-3.8,3.8-3.8c0.7,0,1.6,0.2,2.3,0.5
				v1.7c-0.6-0.3-1.2-0.5-1.7-0.5c-1.3,0-2.1,0.8-2.1,2.1c0,1.3,0.8,2.1,2,2.1c0.4,0,1-0.1,1.4-0.3l0.4-0.2l0.1,0V10.5z"/>
			<path class="st0" d="M23.5,7.2l2.7-3.6h2.5L26,7.2l2.8,3.6h-2.6L23.5,7.2v3.6h-2.1V0.2h2.1V7.2z"/>
			<path class="st0" d="M29.3,1.3c0-0.7,0.5-1.3,1.2-1.3c0.6,0,1.1,0.6,1.1,1.3c0,0.7-0.5,1.2-1.2,1.2S29.3,1.9,29.3,1.3z
				 M31.5,10.8h-2V3.6h2V10.8z"/>
			<path class="st0" d="M35.3,4.6c0.7-0.8,1.3-1.2,2.2-1.2c1,0,1.8,0.5,2.2,1.4C39.9,5.3,40,5.7,40,6.6v4.2h-2.1V6.8
				c0-1.3-0.3-1.7-1.1-1.7c-0.5,0-1.1,0.4-1.5,1.1v4.6h-2.1V3.6h2.1V4.6z"/>
			<path class="st0" d="M42.2,1.3C42.2,1.2,42.2,1.2,42.2,1.3L42.2,1.3C42.1,0.5,41.6,0,41,0c-0.7,0-1.2,0.6-1.2,1.3
				c0,0.5,0.3,0.9,0.7,1.1C40.4,3,40,3.8,40,3.8C41.2,3.6,42.1,2.6,42.2,1.3C42.2,1.3,42.2,1.3,42.2,1.3C42.2,1.3,42.2,1.3,42.2,1.3
				z"/>
			<path class="st0" d="M43.3,7.2c0-2.2,1.6-3.8,3.8-3.8c1.2,0,2.3,0.5,3.1,1.4c0.5,0.6,0.7,1.4,0.7,2.4c0,2.2-1.5,3.7-3.8,3.7
				C44.9,10.9,43.3,9.4,43.3,7.2z M47.1,4.9c-1,0-1.5,0.8-1.5,2.4c0,1.5,0.5,2.2,1.5,2.2c0.5,0,0.9-0.2,1.1-0.6
				c0.2-0.4,0.4-0.9,0.4-1.7c0,0,0-0.1,0-0.1C48.6,5.6,48.1,4.9,47.1,4.9z"/>
			<path class="st0" d="M54,4.6c0.7-0.8,1.3-1.2,2.2-1.2c1,0,1.8,0.5,2.2,1.4c0.2,0.4,0.3,0.8,0.3,1.7v4.2h-2.1V6.8
				c0-1.3-0.3-1.7-1.1-1.7c-0.5,0-1.1,0.4-1.5,1.1v4.6h-2.1V3.6H54V4.6z"/>
			<path class="st0" d="M68,4.2c0.6-0.5,1.2-0.8,1.9-0.8c1.8,0,3.1,1.6,3.1,3.6c0,2.3-1.3,3.8-3.3,3.8c-0.6,0-1.3-0.2-1.7-0.5v3.3
				h-2.1V3.6H68V4.2z M68,9c0.4,0.3,0.8,0.5,1.2,0.5c1,0,1.7-0.8,1.7-2.2c0-1.4-0.6-2.2-1.6-2.2c-0.5,0-1,0.2-1.3,0.6V9z"/>
			<path class="st0" d="M76.2,4.5L76.2,4.5c0.4-0.7,1.1-1,1.8-1c0.3,0,0.6,0.1,0.9,0.2l-0.2,2c-0.2-0.2-0.5-0.3-0.9-0.3
				c-1.4,0-1.6,1.3-1.6,2.5v2.9h-2.1V3.7h2.1V4.5z"/>
			<path class="st0" d="M92.4,5.6l-0.1-0.1c-0.7-0.4-1.4-0.6-2-0.6c-0.6,0-0.9,0.2-0.9,0.5c0,0.3,0.1,0.4,1.2,0.9
				c1,0.4,1.4,0.7,1.8,1.2c0.2,0.3,0.4,0.7,0.4,1.2c0,1.5-1,2.3-2.8,2.3c-0.9,0-1.9-0.2-2.4-0.5V8.8c0.8,0.5,1.5,0.7,2.2,0.7
				c0.6,0,1-0.2,1-0.5c0-0.3-0.2-0.5-0.8-0.7L89.5,8c-0.3-0.1-0.4-0.2-0.5-0.2c-0.2-0.1-0.4-0.2-0.6-0.3c-0.6-0.4-0.9-1-0.9-1.7
				c0-1.3,1.1-2.2,2.8-2.2c0.8,0,1.5,0.2,2.1,0.5l0.1,0V5.6z"/>
			<path class="st0" d="M103.7,4.6c0.7-0.8,1.3-1.2,2.2-1.2c1,0,1.8,0.5,2.2,1.4c0.2,0.4,0.3,0.8,0.3,1.7v4.2h-2.1V6.8
				c0-1.3-0.3-1.7-1.1-1.7c-0.5,0-1.1,0.4-1.5,1.1v4.6h-2.1V3.6h2.1V4.6z"/>
			<path class="st0" d="M114.5,5.2h-2.4v1.6c0,0,0,0.2,0,0.4c0,0.1,0,0.1,0,0.2c0,1.5,0.2,1.9,1,1.9c0.4,0,0.8-0.1,1.3-0.4
				c0,0,0.1,0,0.1,0v1.6c-0.7,0.3-1.3,0.5-2,0.5c-1,0-1.7-0.4-2.2-1.1c-0.3-0.5-0.4-0.9-0.4-2.1V5.2h-1l3.1-3.8v2.3h2.4V5.2z"/>
			<path class="st0" d="M120.3,5.6l-0.1-0.1c-0.7-0.4-1.4-0.6-2-0.6c-0.6,0-0.9,0.2-0.9,0.5c0,0.3,0.1,0.4,1.2,0.9
				c1,0.4,1.4,0.7,1.8,1.2c0.2,0.3,0.4,0.7,0.4,1.2c0,1.5-1,2.3-2.8,2.3c-0.9,0-1.9-0.2-2.4-0.5V8.8c0.8,0.5,1.5,0.7,2.2,0.7
				c0.6,0,1-0.2,1-0.5c0-0.3-0.2-0.5-0.8-0.7L117.3,8c-0.3-0.1-0.4-0.2-0.5-0.2c-0.2-0.1-0.4-0.2-0.6-0.3c-0.6-0.4-0.9-1-0.9-1.7
				c0-1.3,1.1-2.2,2.8-2.2c0.8,0,1.5,0.2,2.1,0.5l0.1,0V5.6z"/>
			<path class="st0" d="M83.6,9.5c-1,0-2-0.7-2-1.9h4.9c0-0.1,0-0.2,0-0.2c0-2.7-1.4-3.9-3.5-3.9c-2.1,0-3.6,1.6-3.6,3.7
				c0,2.1,1.6,3.7,4.1,3.7c0.7,0,1.5-0.1,2.2-0.6V8.8C85,9.3,84.3,9.5,83.6,9.5z M83.1,4.8c0.8,0,1.4,0.6,1.5,1.5h-2.9
				C81.7,5.5,82.3,4.8,83.1,4.8z"/>
			<path class="st0" d="M97.7,9.5c-1,0-2-0.7-2-1.9h4.9c0-0.1,0-0.2,0-0.2c0-2.7-1.4-3.9-3.5-3.9c-2.1,0-3.6,1.6-3.6,3.7
				c0,2.1,1.6,3.7,4.1,3.7c0.7,0,1.5-0.1,2.2-0.6V8.8C99.1,9.3,98.3,9.5,97.7,9.5z M97.2,4.8c0.8,0,1.4,0.6,1.5,1.5h-2.9
				C95.8,5.5,96.4,4.8,97.2,4.8z"/>
		</g>
	</g>
</g>
</svg>
