<?xml version="1.0" encoding="utf-8"?>
<!-- Generator: Adobe Illustrator 23.0.0, SVG Export Plug-In . SVG Version: 6.00 Build 0)  -->
<svg version="1.1" id="レイヤー_1" xmlns="http://www.w3.org/2000/svg" xmlns:xlink="http://www.w3.org/1999/xlink" x="0px"
	 y="0px" viewBox="0 0 506.06 109.78" style="enable-background:new 0 0 506.06 109.78;" xml:space="preserve">
<style type="text/css">
	.st0{fill:#0E174A;}
</style>
<path class="st0" d="M83.9,0.01c-6.68,0.3-11.82,5.46-11.95,12.01c-0.05,2.66-0.18,5.13-0.4,7.56c-0.11,1.15-0.23,2.31-0.36,3.37
	l-0.28,1.83c-0.79,4.9-1.89,9.78-3.29,14.54c-1.39,4.73-2.95,9.01-4.52,12.38c-2.11,4.55-4.48,8.7-7.03,12.32
	c-0.08,0.1-0.3,0.39-0.53,0.69c-0.26,0.34-0.51,0.68-0.67,0.89c-0.63,0.77-1.27,1.52-1.94,2.25c-1.69,1.86-3.51,3.64-5.41,5.3
	c-2.15,1.89-2.52,2.15-4.71,3.62c-2.01,1.35-4.11,2.59-6.23,3.68l-0.38,0.19c-2.33,1.2-2.33,1.2-4.73,2.06
	c-2.2,0.78-4.46,1.43-6.71,1.93c-1.06,0.24-2.13,0.43-3.16,0.61l-0.23,0.04c-0.61,0.07-1.22,0.13-1.83,0.17
	c-2.31,0.18-4.72,0.19-7.35,0.04c-3.05-0.18-6.17,1.09-8.57,3.46c-2.45,2.42-3.77,5.59-3.63,8.71c0.3,6.65,5.19,11.56,11.91,11.94
	c1.19,0.07,2.39,0.11,3.58,0.11c17.33,0,35.09-7.05,49.25-19.64c12.36-10.99,21.38-26.73,26.81-46.76
	c2.79-10.27,4.3-20.76,4.51-31.2c0.07-3.17-1.29-6.35-3.73-8.72C90,1.11,86.92-0.12,83.9,0.01"/>
<path class="st0" d="M345.57,45.2c-5.83-1.33-13.11,1.57-14.75,8.54c-0.22,0.96-0.53,1.97-0.98,3.19c-0.82,1.75-1.84,3.47-3.02,5.13
	c-1.14,1.34-2.39,2.59-3.71,3.72c-1.19,0.83-2.42,1.56-3.69,2.17c-1.16,0.42-2.34,0.74-3.49,0.97c-0.86,0.05-1.57,0.07-2.24,0.05
	c-3.11-0.07-6.28,1.22-8.67,3.63c-2.34,2.37-3.6,5.48-3.47,8.54c0.3,6.7,5.33,11.72,11.97,11.94c2.39,0.09,4.81-0.1,7.22-0.53v5.13
	c0,3.13,1.32,6.32,3.54,8.53c2.17,2.18,5.37,3.54,8.25,3.54c0.13,0,0.26-0.01,0.39-0.01c6.7-0.3,11.95-5.6,11.95-12.05V78.12
	c4.54-5.39,7.74-11.64,9.27-18.16c0.77-3.3,0.18-6.85-1.63-9.74C350.88,47.63,348.41,45.85,345.57,45.2"/>
<path class="st0" d="M302.64,21.51c-2.28-2.35-5.4-3.68-8.54-3.68h-27.96v-5.95c0-3.08-1.3-6.21-3.41-8.32
	c-1.09-1.17-2.39-2.03-3.87-2.55c-1.45-0.72-3.02-1.07-4.7-1c-3.43,0.16-6.39,1.42-8.35,3.55c-2.22,2.42-3.4,5.29-3.4,8.31v5.95
	h-27.97c-6.43,0-11.87,5.44-11.87,11.86v25.19c0,3.19,1.39,6.35,3.81,8.67c2.29,2.19,5.19,3.35,8.16,3.19
	c6.59-0.29,11.75-5.5,11.75-11.86V41.55h54.4c-0.81,3.38-1.87,6.73-3.14,9.92c-0.09,0.19-0.27,0.6-0.43,0.99l-0.28,0.63
	c-0.47,1.01-0.96,2-1.47,2.98c-0.96,1.83-2,3.61-3.09,5.3c-2.17,3.38-3.38,4.94-6.62,8.17c-4.99,4.95-12.35,9.69-18.76,12.06
	c-8.32,3.09-14.69,4.08-23.49,3.67c-3.02-0.17-6.12,1.13-8.48,3.48c-2.37,2.36-3.64,5.46-3.5,8.5c0.29,6.51,5.23,11.44,11.75,11.75
	c1.17,0.05,2.35,0.08,3.52,0.08c20.65,0,41.26-8.36,55.73-22.74c14.39-14.32,22.97-34.95,23.52-56.59
	C306.04,26.72,304.86,23.79,302.64,21.51"/>
<path class="st0" d="M113.66,41.64h0.13l-0.03-2.49l0.11,2.49l14.94-0.17c3.09-0.04,6.21-1.33,8.34-3.47
	c2.23-2.23,3.59-5.56,3.46-8.48c-0.15-3.41-1.41-6.37-3.54-8.32c-2.45-2.25-5.35-3.37-8.31-3.39l-15.02,0.17
	c-3.09,0.04-6.2,1.33-8.33,3.46c-2.23,2.24-3.59,5.57-3.46,8.48c0.16,3.41,1.41,6.37,3.54,8.32
	C107.9,40.47,110.72,41.64,113.66,41.64"/>
<path class="st0" d="M178.56,17.91c-6.66,0.31-11.81,5.62-11.72,12.1c0.22,15.75-5.16,31.24-14.4,41.45
	c-2.27,2.51-5.27,5.21-7.44,6.71c-1.67,1.15-3.43,2.22-5.22,3.18c-0.83,0.44-1.66,0.85-2.58,1.28c-0.51,0.21-1.02,0.41-1.53,0.6
	c-1.74,0.63-3.5,1.17-5.25,1.6c-0.79,0.2-1.58,0.35-2.38,0.51l-0.33,0.07c-0.26,0.05-0.46,0.1-0.62,0.13l-0.42,0.04
	c-1.93,0.2-3.71,0.29-5.42,0.26c-1.03-0.01-2.09-0.06-3.16-0.15c-0.38-0.03-0.76-0.07-1.04-0.1l-0.51-0.08
	c-5.94-0.99-12.76,1.66-14.31,8.6c-0.76,3.41-0.03,7.37,1.92,10.33c1.62,2.45,3.97,4.03,6.63,4.47c3.51,0.58,7.04,0.87,10.53,0.87
	c17.74,0,34.88-7.35,47.31-20.64c14.22-15.21,22.2-36.78,21.88-59.19c-0.05-3.3-1.47-6.54-3.91-8.88
	C184.33,18.89,181.48,17.75,178.56,17.91"/>
<path class="st0" d="M376.07,17.91c-6.59,0.29-11.74,5.5-11.74,11.85v67.48c0,3.19,1.38,6.34,3.81,8.66
	c2.17,2.08,4.89,3.21,7.69,3.21c0.15,0,0.31-0.01,0.46-0.02c6.59-0.29,11.74-5.5,11.74-11.85V29.75c0-3.19-1.38-6.34-3.81-8.66
	C381.93,18.9,379.02,17.76,376.07,17.91"/>
<path class="st0" d="M465.69,49.98c-2.02-2.7-5.32-4.07-9.8-4.07c-7.48,0-11.11,8.41-11.41,9.16c-1.15,2.63-4.68,9.55-5.04,10.18
	c-2.73,4.78-7.37,9.86-12.38,13.6c-1.15,0.85-2.73,1.86-4.37,2.81c-0.35-23.5,0.01-46.92,1.06-69.69c0.14-3.03-1.15-6.12-3.54-8.48
	c-2.4-2.36-5.54-3.63-8.63-3.5c-6.62,0.29-11.64,5.23-11.94,11.75c-1.34,28.77-1.59,57.77-0.77,86.18c0.1,3.35,1.8,6.86,4.43,9.15
	c2.02,1.75,4.45,2.69,6.93,2.69c0.32,0,0.63-0.02,0.95-0.05c18.88-1.81,37.36-13.71,48.23-31.06c3.15-5.02,5.73-10.83,7.65-17.22
	C467.14,61.17,469.14,54.59,465.69,49.98"/>
<path class="st0" d="M502.97,21.91c-10.92-1.78-15.11-8.01-17.15-18.94c-0.29-1.53-1.38-2.82-3.09-2.82c-1.71,0-2.88,1.28-3.09,2.82
	c-1.37,10.24-7.97,17.64-17.15,18.94c-1.69,0.24-3.1,1.26-3.1,2.83c0,1.56,1.42,2.53,3.1,2.82c9.31,1.59,15.28,8.66,17.15,18.94
	c0.28,1.53,1.38,2.82,3.09,2.82c1.71,0,2.83-1.28,3.09-2.82c1.67-9.83,7.28-17.12,17.15-18.94c1.68-0.31,3.09-1.27,3.09-2.82
	C506.06,23.18,504.65,22.19,502.97,21.91"/>
</svg>
