<?xml version="1.0" encoding="utf-8"?>
<!-- Generator: Adobe Illustrator 25.4.1, SVG Export Plug-In . SVG Version: 6.00 Build 0)  -->
<svg version="1.1" id="レイヤー_1" xmlns="http://www.w3.org/2000/svg" xmlns:xlink="http://www.w3.org/1999/xlink" x="0px"
	 y="0px" viewBox="0 0 552.7 388.1" style="enable-background:new 0 0 552.7 388.1;" xml:space="preserve">
<g>
	<path d="M7.1,225.8h21.3v77.6H7.1V225.8z"/>
	<path d="M34.6,225.8h21l16.9,40.6v-40.6h21.4v77.6H73.4l-17.5-40.6v40.6H34.6V225.8z"/>
	<path d="M115.4,278.7c1.8,4.2,4.1,6.3,6.9,6.3c3.5,0,4.2-1.5,4.2-8v-51.3H148v60.4c-0.8,11.4-7.7,18.3-18.6,18.3
		c-5,0-8.8-1.1-13.9-3.9V278.7z"/>
	<path d="M164.4,225.8h26.7l17.1,77.6h-21.7l-1.9-13.5h-13.2l-2,13.5h-22L164.4,225.8z M173.6,274.6h8.6l-4.3-29.1L173.6,274.6z"/>
	<path d="M272,225.8h26.7l17.1,77.6h-21.7l-1.9-13.5H279l-2,13.5h-22L272,225.8z M281.3,274.6h8.6l-4.3-29.1L281.3,274.6z"/>
	<path d="M232,276.6v26.8h-21.3v-77.6h19.7c1.1,0,0.5,0,3.7,0c18.6,0,28.6,11.7,28.6,25.6c0,15.8-10,25.2-28.6,25.2H232z M232,260.9
		h2.3c6.8,0,8-4.3,8-9.4c0-5.9-2.5-8.4-8.1-8.5H232V260.9z"/>
	<path d="M318.4,225.8h20.8l17.1,40.6v-40.6h21.4v77.6h-20.4l-17.5-40.6v40.6h-21.3V225.8z"/>
	<path d="M402,225.8h38.5v17.4h-17.2v12.6h14.3v16.9h-14.3v30.7H402V225.8z"/>
	<path d="M443.7,225.8h39.1v17.4H465v12.6H480v16.9H465v13.2h17.8v17.4h-39.1V225.8z"/>
	<path d="M527.5,249.3c-5.3-4.2-10.1-6.3-14.4-6.3c-3.8,0-6.6,2.5-6.6,5.8c0,3.3,1.8,4.9,9.8,9c11.1,5.6,14.8,11.2,14.8,22
		c0,14.7-9.8,24.4-25.2,24.4c-6.7,0-11.9-1.2-19.2-4.3v-22.1c4.6,5.3,10.4,7.9,15.2,7.9c4.1,0,7.1-2.6,7.1-6.1
		c0-3.1-1.2-4.5-8.5-8.2c-11.7-5.7-15.9-11.5-15.9-22.2c0-14.4,10.3-24,25.7-24c6.2,0,10.5,0.8,17.1,3.3V249.3z"/>
	<path d="M541.8,282.4c5.9,0,10.9,4.9,10.9,11s-5,11-10.9,11c-6.1,0-10.9-4.9-10.9-10.9C530.9,287.4,535.8,282.4,541.8,282.4z"/>
	<g>
		<path d="M183.3,370.7c10.8-11.6,17.5-23.9,17.5-33.5c0-6.1-2.7-9.7-7.5-9.7c-3.2,0-7.2,1.5-10,5.6v-20.8
			c6.1-2.9,12.5-3.9,17.9-3.9c13.4,0,21.6,8.5,21.6,22.2c0,10.9-4.4,22.7-14.8,36.3h15.7v20h-40.4V370.7z"/>
		<path d="M279.4,370.7c10.8-11.6,17.5-23.9,17.5-33.5c0-6.1-2.7-9.7-7.5-9.7c-3.2,0-7.2,1.5-10,5.6v-20.8
			c6.1-2.9,12.5-3.9,17.9-3.9c13.4,0,21.6,8.5,21.6,22.2c0,10.9-4.4,22.7-14.8,36.3h15.7v20h-40.4V370.7z"/>
		<path d="M322.7,370.7c10.8-11.6,17.5-23.9,17.5-33.5c0-6.1-2.7-9.7-7.5-9.7c-3.2,0-7.2,1.5-10,5.6v-20.8
			c6.1-2.9,12.5-3.9,17.9-3.9c13.4,0,21.6,8.5,21.6,22.2c0,10.9-4.4,22.7-14.8,36.3h15.7v20h-40.4V370.7z"/>
		<path d="M251.2,308.2c16.9,0,26.9,13.7,26.9,39.9c0,25-9.3,40-26.9,40c-16.7,0-26.9-13.3-26.9-40
			C224.2,322.4,234,308.2,251.2,308.2z M244.1,348.1c0,12.7,2.7,20.6,6.9,20.6c4.5,0,7.1-7.5,7.1-20.6c0-12.6-2.6-20.4-6.9-20.4
			C246.8,327.6,244.1,335.2,244.1,348.1z"/>
	</g>
	<g>
		<path d="M208.6,79.9c-9.8,0-14.5,13.8-14.5,41.8c0,28,4.7,41.8,14.5,41.8c9.8,0,14.7-13.5,14.7-41.8
			C223.4,93.6,218.4,79.9,208.6,79.9z"/>
		<path d="M68.8,75.3h-5v34.6H69c9,0,12-8.1,12-17.5C81,81.7,76.2,75.3,68.8,75.3z"/>
		<path d="M0,22.9v197.4h546.3V22.9H0z M145.5,213.4H87.4c-0.6,0-1.6,0.2-0.9-1.1c0.6-1.1,0.4-3.3,0-5.5L71,144.5l-7.2,0v62.7
			c0,2.1,0.2,4.2,0.7,5.1c0.8,1.3-0.3,1.1-0.9,1.1H7.2c-0.6,0-1.6,0.2-0.9-1.1c0.4-0.7,0.7-2.3,0.7-4.3V35.1
			c-0.1-1.7-0.2-3.5-0.7-4.3c-0.7-1.2,0.1-1.1,0.7-1.1l62.5,0c40.3,0,64.6,22.2,64.6,59.3c0,20-5.9,32.9-14.5,41.1l20.1,67
			c0,0,3.5,11.1,6.4,15.1C146.9,213.2,146.2,213.4,145.5,213.4z M208.6,215.9c-46.9,0-73-32.9-73-94.2c0-59.1,24.6-94.2,73-94.2
			c47.7,0,73.2,33.4,73.2,94.2C281.9,179.2,258.5,215.9,208.6,215.9z M395.7,203.9C395.7,203.9,395.7,203.9,395.7,203.9l0,1.5
			c0,0.6,0,1.6-1.1,0.9c-0.9-0.6-1.7-0.5-2.9,0.1c-12.3,7.3-21.8,9.8-35.6,9.8c-45.7,0-71-33.4-71-94c0-58.3,27.3-94.2,71.8-94.2
			c11.7,0,21.9,2.1,32.4,7.6c2.2,1.2,3,1.6,4.3,0.8c1.1-0.7,1.1,0.3,1.1,0.9v11l0,0v47.9l-0.1,0c-6.1-10.6-13.3-17.2-23.8-17.2
			c-15.8,0-26.9,14-26.9,43.2c0,27.3,12.3,41.3,26.9,41.3c12.9,0,20.4-7.3,24.9-22h0.1V203.9z M542.1,213.3L542.1,213.3l-63.5,0
			c-0.6,0-1.6,0.2-0.9-1.1c0.8-1.3,0.4-4.1-0.5-6.9l-18.5-62.1v63.4c0,1.8,0.2,4.6,0.7,5.6c0.8,1.3-0.3,1.1-0.9,1.1l-11,0l-45.5,0
			c-0.6,0-1.6,0.2-0.9-1.1c0.8-1.3,0.7-6.3,0.7-7.1l0-169.5c0-1.8-0.2-4.1-0.7-4.9c-0.8-1.3,0.3-1.1,0.9-1.1l56.6,0v0
			c0.6,0,1.4-0.1,0.7,1.1c-0.6,0.9-0.7,3.7-0.7,5.6v58.8L476,37.6c0.8-2.8,1.2-5.6,0.4-6.9c-0.8-1.3,0.3-1.1,0.9-1.1h60.2
			c0.7,0,1.5,0.2,0.7,1.1c-1.2,1.4-2.3,4-3.4,6.3l-30.2,79.2l34.9,90.6c0.8,1.8,2.1,4.4,2.9,5.4C543.1,213,542.6,213.3,542.1,213.3z
			"/>
	</g>
	<g>
		<path d="M4.5,7.6L4.5,7.6c0.7-1.1,1.8-1.8,3.1-1.8c0.5,0,1,0.1,1.4,0.3L8.6,9.5C8.2,9.2,7.7,9.1,7.2,9.1c-2.4,0-2.6,2.3-2.6,4.2
			V18H1.1V6.2h3.5V7.6z"/>
		<path d="M9.6,12.2c0-3.6,2.7-6.3,6.5-6.3c2.1,0,3.9,0.8,5.1,2.4c0.8,1,1.2,2.3,1.2,4c0,3.7-2.6,6.2-6.4,6.2
			C12.2,18.4,9.6,15.8,9.6,12.2z M15.9,8.2c-1.7,0-2.5,1.3-2.5,4.1c0,2.5,0.9,3.8,2.6,3.8c0.8,0,1.4-0.3,1.9-1
			c0.4-0.6,0.6-1.5,0.6-2.9c0-0.1,0-0.1,0-0.2C18.5,9.4,17.6,8.2,15.9,8.2z"/>
		<path d="M34.2,17.6c-1.4,0.6-2.6,0.8-3.8,0.8c-4,0-6.6-2.5-6.6-6.2c0-3.7,2.7-6.3,6.4-6.3c1.2,0,2.7,0.3,3.8,0.8v2.8
			c-0.9-0.5-2-0.8-2.9-0.8c-2.1,0-3.5,1.4-3.5,3.5c0,2.1,1.4,3.6,3.4,3.6c0.6,0,1.6-0.2,2.3-0.5l0.7-0.3l0.2-0.1V17.6z"/>
		<path d="M39.5,12.1l4.5-6h4.2l-4.4,6l4.6,6.1H44l-4.5-6v6h-3.6V0.3h3.6V12.1z"/>
		<path d="M49.3,2.1c0-1.2,0.9-2.1,2-2.1c1.1,0,1.9,0.9,1.9,2.1c0,1.1-0.9,2-2,2S49.3,3.3,49.3,2.1z M52.9,18.2h-3.4V6.1h3.4V18.2z"
			/>
		<path d="M59.4,7.8c1.1-1.4,2.2-2,3.7-2c1.7,0,3,0.9,3.7,2.4c0.3,0.7,0.4,1.3,0.4,2.8v7.1h-3.6v-6.8c0-2.1-0.5-2.9-1.8-2.9
			c-0.9,0-1.9,0.7-2.5,1.9v7.8h-3.6V6.1h3.6V7.8z"/>
		<path d="M70.9,2.1C70.9,2.1,70.9,2.1,70.9,2.1L70.9,2.1C70.9,0.9,70,0,69,0c-1.1,0-2,0.9-2,2.1c0,0.8,0.5,1.5,1.1,1.8
			c-0.3,1-0.8,2.4-0.8,2.4c1.9-0.2,3.5-2,3.6-4.1C70.9,2.2,70.9,2.2,70.9,2.1C70.9,2.1,70.9,2.1,70.9,2.1z"/>
		<path d="M72.8,12.2c0-3.6,2.7-6.3,6.5-6.3c2.1,0,3.9,0.8,5.1,2.4c0.8,1,1.2,2.3,1.2,4c0,3.7-2.6,6.2-6.4,6.2
			C75.5,18.4,72.8,15.8,72.8,12.2z M79.2,8.2c-1.7,0-2.5,1.3-2.5,4.1c0,2.5,0.9,3.8,2.6,3.8c0.8,0,1.4-0.3,1.9-1
			c0.4-0.6,0.6-1.5,0.6-2.9c0-0.1,0-0.1,0-0.2C81.8,9.4,80.9,8.2,79.2,8.2z"/>
		<path d="M90.9,7.8c1.1-1.4,2.2-2,3.7-2c1.7,0,3,0.9,3.7,2.4c0.3,0.7,0.4,1.3,0.4,2.8v7.1h-3.6v-6.8c0-2.1-0.5-2.9-1.8-2.9
			c-0.9,0-1.9,0.7-2.5,1.9v7.8h-3.6V6.1h3.6V7.8z"/>
		<path d="M114.3,7.1c1-0.8,2-1.3,3.3-1.3c3,0,5.3,2.7,5.3,6.1c0,3.9-2.2,6.4-5.6,6.4c-1,0-2.1-0.3-2.9-0.8v5.6h-3.6V6.1h3.6V7.1z
			 M114.3,15.1c0.7,0.5,1.3,0.8,2,0.8c1.7,0,2.8-1.4,2.8-3.6c0-2.3-1-3.6-2.6-3.6c-0.8,0-1.7,0.4-2.2,1V15.1z"/>
		<path d="M128.2,7.6L128.2,7.6c0.7-1.1,1.8-1.8,3.1-1.8c0.5,0,1,0.1,1.4,0.3l-0.4,3.4c-0.4-0.3-0.9-0.5-1.4-0.5
			c-2.4,0-2.6,2.3-2.6,4.2v4.9h-3.5V6.2h3.5V7.6z"/>
		<path d="M155.4,9.4l-0.2-0.1c-1.2-0.7-2.4-1.1-3.3-1.1c-1,0-1.6,0.3-1.6,0.8c0,0.5,0.1,0.6,2,1.4c1.6,0.7,2.4,1.2,3,2
			c0.4,0.6,0.6,1.2,0.6,2c0,2.5-1.7,3.9-4.6,3.9c-1.4,0-3.2-0.4-4.1-0.9v-2.7c1.4,0.8,2.5,1.1,3.6,1.1c1.1,0,1.7-0.3,1.7-0.9
			c0-0.5-0.3-0.8-1.3-1.3l-0.8-0.4c-0.4-0.2-0.7-0.3-0.9-0.4c-0.4-0.2-0.7-0.3-1-0.5c-0.9-0.6-1.5-1.7-1.5-2.9
			c0-2.3,1.9-3.7,4.7-3.7c1.4,0,2.5,0.3,3.5,0.8l0.2,0.1V9.4z"/>
		<path d="M174.3,7.8c1.1-1.4,2.2-2,3.7-2c1.7,0,3,0.9,3.7,2.4c0.3,0.7,0.4,1.3,0.4,2.8v7.1h-3.6v-6.8c0-2.1-0.5-2.9-1.8-2.9
			c-0.9,0-1.9,0.7-2.5,1.9v7.8h-3.6V6.1h3.6V7.8z"/>
		<path d="M192.5,8.7h-4.1v2.6c0,0.1,0,0.3,0,0.7c0,0.1,0,0.2,0,0.3c0,2.5,0.3,3.2,1.7,3.2c0.7,0,1.3-0.2,2.2-0.6
			c0,0,0.1-0.1,0.2-0.1v2.8c-1.3,0.6-2.2,0.8-3.3,0.8c-1.6,0-2.9-0.7-3.7-1.8c-0.5-0.8-0.7-1.6-0.7-3.5V8.7h-1.6l5.3-6.4v3.8h4.1
			V8.7z"/>
		<path d="M202.3,9.4l-0.2-0.1c-1.2-0.7-2.4-1.1-3.3-1.1c-1,0-1.6,0.3-1.6,0.8c0,0.5,0.1,0.6,2,1.4c1.6,0.7,2.4,1.2,3,2
			c0.4,0.6,0.6,1.2,0.6,2c0,2.5-1.7,3.9-4.6,3.9c-1.4,0-3.2-0.4-4.1-0.9v-2.7c1.4,0.8,2.5,1.1,3.6,1.1c1.1,0,1.7-0.3,1.7-0.9
			c0-0.5-0.3-0.8-1.3-1.3l-0.8-0.4c-0.4-0.2-0.7-0.3-0.9-0.4c-0.4-0.2-0.7-0.3-1-0.5c-0.9-0.6-1.5-1.7-1.5-2.9
			c0-2.3,1.9-3.7,4.7-3.7c1.4,0,2.5,0.3,3.5,0.8l0.2,0.1V9.4z"/>
		<path d="M140.6,16c-1.8,0-3.4-1.1-3.4-3.2h8.2c0-0.2,0-0.3,0-0.3c0-4.5-2.4-6.6-5.8-6.6c-3.5,0-6,2.7-6,6.3c0,3.6,2.6,6.3,6.8,6.3
			c1.2,0,2.4-0.2,3.7-1v-2.7C143,15.7,141.7,16,140.6,16z M139.7,8.2c1.4,0,2.3,1,2.5,2.6h-4.9C137.4,9.2,138.4,8.2,139.7,8.2z"/>
		<path d="M164.3,16c-1.8,0-3.4-1.1-3.4-3.2h8.2c0-0.2,0-0.3,0-0.3c0-4.5-2.4-6.6-5.8-6.6c-3.5,0-6,2.7-6,6.3c0,3.6,2.6,6.3,6.8,6.3
			c1.2,0,2.4-0.2,3.7-1v-2.7C166.7,15.7,165.4,16,164.3,16z M163.4,8.2c1.4,0,2.3,1,2.5,2.6H161C161.1,9.2,162.1,8.2,163.4,8.2z"/>
	</g>
</g>
</svg>
